<?xml version="1.0" encoding="UTF-8"?> <svg xmlns="http://www.w3.org/2000/svg" width="1366" height="676.008" viewBox="0 0 1366 676.008"><path id="Subtraction_1" data-name="Subtraction 1" d="M20148,24702h-478.131c-26.369-1.316-63.867-3.9-92.768-8.756a324.535,324.535,0,0,1-47.17-11.646l-.027-.01a252.192,252.192,0,0,0-24.871-6.8,185.325,185.325,0,0,0-32.5-3.541c-1.857-.088-3.828-.131-5.857-.131h-3.355c-2.037,0-4.008.043-5.857.131a185.281,185.281,0,0,0-32.5,3.541,251.486,251.486,0,0,0-24.895,6.813,324.805,324.805,0,0,1-47.176,11.648c-28.9,4.854-66.4,7.439-92.764,8.756H18782l0-676.006,1366,0,0,676.006v0h0Z" transform="translate(-18781.998 -24025.996)" fill="#161615"></path></svg> 