<?xml version="1.0" encoding="UTF-8"?> <svg xmlns="http://www.w3.org/2000/svg" id="Group_18775" data-name="Group 18775" width="179.327" height="48.549" viewBox="0 0 179.327 48.549"><rect id="Rectangle_17479" data-name="Rectangle 17479" width="54.555" height="8.668" transform="translate(0 39.881)" fill="#f79400"></rect><g id="Group_18770" data-name="Group 18770" transform="translate(59.662 41.955)"><g id="Group_18769" data-name="Group 18769"><path id="Path_10253" data-name="Path 10253" d="M251.506,317.294l-.27-1.429h-1.711l-.785,1.429h-.734l2.689-4.85h.624l.926,4.85Zm-.386-2.078-.271-1.855h-.013l-.946,1.855Z" transform="translate(-248.006 -312.353)" fill="#100f0c"></path><path id="Path_10254" data-name="Path 10254" d="M264.805,317.294l-1.673-3.749h-.013l-.682,3.749h-.695l.881-4.85h.759l1.647,3.69h.013l.669-3.69h.7l-.882,4.85Z" transform="translate(-255.335 -312.353)" fill="#100f0c"></path><path id="Path_10255" data-name="Path 10255" d="M282.637,317.294l.881-4.85h.7l-.882,4.85Z" transform="translate(-266.484 -312.353)" fill="#100f0c"></path><path id="Path_10256" data-name="Path 10256" d="M294.034,313.578q-.038-.059-.129-.174a1.5,1.5,0,0,0-.231-.229,1.3,1.3,0,0,0-.354-.2,1.381,1.381,0,0,0-.5-.082,1.825,1.825,0,0,0-.721.147,2.334,2.334,0,0,0-.631.4,2.394,2.394,0,0,0-.482.59,2.228,2.228,0,0,0-.27.721,1.751,1.751,0,0,0,.013.734,1.616,1.616,0,0,0,.277.6,1.367,1.367,0,0,0,.486.4,1.407,1.407,0,0,0,.64.147,1.751,1.751,0,0,0,.75-.174,2.355,2.355,0,0,0,.666-.469h.855a3.417,3.417,0,0,1-.566.6,3.038,3.038,0,0,1-.618.4,2.91,2.91,0,0,1-.627.22,2.749,2.749,0,0,1-.589.069,2.012,2.012,0,0,1-.913-.2,1.925,1.925,0,0,1-.673-.55,2.151,2.151,0,0,1-.379-.806,2.3,2.3,0,0,1-.016-.976,2.836,2.836,0,0,1,.376-.987,3.324,3.324,0,0,1,.675-.793,3.113,3.113,0,0,1,.875-.528,2.56,2.56,0,0,1,1.284-.17,2.272,2.272,0,0,1,.35.072,2.1,2.1,0,0,1,.363.144,1.757,1.757,0,0,1,.347.236,1.587,1.587,0,0,1,.4.465,3.159,3.159,0,0,1,.177.393Z" transform="translate(-270.399 -312.248)" fill="#100f0c"></path><path id="Path_10257" data-name="Path 10257" d="M304.713,317.294l.765-4.2h-.914l.116-.649H307.2l-.116.649h-.913l-.766,4.2Z" transform="translate(-278.184 -312.353)" fill="#100f0c"></path><path id="Path_10258" data-name="Path 10258" d="M313.355,315.754a1.288,1.288,0,0,0-.016.207.872.872,0,0,0,.045.294.577.577,0,0,0,.183.262.6.6,0,0,0,.4.115.885.885,0,0,0,.585-.216.992.992,0,0,0,.328-.6.606.606,0,0,0-.013-.334.549.549,0,0,0-.148-.216.8.8,0,0,0-.222-.138c-.083-.035-.164-.07-.241-.1-.146-.061-.267-.113-.363-.157a2.671,2.671,0,0,1-.245-.125.9.9,0,0,1-.164-.121c-.043-.042-.088-.089-.135-.141a.762.762,0,0,1-.173-.41,1.648,1.648,0,0,1,.013-.5,1.539,1.539,0,0,1,.164-.443,1.7,1.7,0,0,1,.328-.426,1.786,1.786,0,0,1,.473-.321,1.417,1.417,0,0,1,.611-.127,1.378,1.378,0,0,1,.528.095.968.968,0,0,1,.38.272,1.015,1.015,0,0,1,.206.426,1.431,1.431,0,0,1,.006.557h-.695a.787.787,0,0,0-.007-.338.48.48,0,0,0-.122-.216.461.461,0,0,0-.2-.115.8.8,0,0,0-.219-.033.638.638,0,0,0-.283.062.854.854,0,0,0-.229.16.878.878,0,0,0-.16.216.8.8,0,0,0-.08.223.511.511,0,0,0,.016.292.474.474,0,0,0,.135.187.806.806,0,0,0,.189.118c.069.031.127.055.174.072q.206.085.447.18a1.405,1.405,0,0,1,.428.263,1.017,1.017,0,0,1,.28.435,1.44,1.44,0,0,1,.016.708,1.827,1.827,0,0,1-.592,1.049,1.7,1.7,0,0,1-.518.308,1.734,1.734,0,0,1-.621.111,1.491,1.491,0,0,1-.489-.085,1.051,1.051,0,0,1-.421-.272,1.17,1.17,0,0,1-.264-.475,1.47,1.47,0,0,1-.01-.694Z" transform="translate(-282.484 -312.248)" fill="#100f0c"></path><path id="Path_10259" data-name="Path 10259" d="M323.253,317.294l.882-4.85h.695l-.882,4.85Z" transform="translate(-288.155 -312.353)" fill="#100f0c"></path><path id="Path_10260" data-name="Path 10260" d="M341.874,313.559c-.042-.057-.1-.123-.157-.2a1.358,1.358,0,0,0-.57-.393,1.307,1.307,0,0,0-.457-.072,1.8,1.8,0,0,0-.72.151,2.294,2.294,0,0,0-.633.41,2.442,2.442,0,0,0-.483.6,2.27,2.27,0,0,0-.267.721,1.708,1.708,0,0,0,.02.741,1.542,1.542,0,0,0,.289.587,1.413,1.413,0,0,0,.492.386,1.441,1.441,0,0,0,.634.141c.021,0,.066,0,.135-.007a1.517,1.517,0,0,0,.254-.042,2.424,2.424,0,0,0,.334-.108,1.977,1.977,0,0,0,.383-.206,2.3,2.3,0,0,0,.389-.338,2.739,2.739,0,0,0,.363-.5h-2.219l.116-.649h3.01a3.008,3.008,0,0,1-.431,1.078,3.276,3.276,0,0,1-.711.784,3.032,3.032,0,0,1-.872.478,2.734,2.734,0,0,1-.9.164,2.092,2.092,0,0,1-.93-.2,1.87,1.87,0,0,1-.672-.544,2.032,2.032,0,0,1-.367-.8,2.417,2.417,0,0,1-.013-.964,2.988,2.988,0,0,1,.367-.983,3.278,3.278,0,0,1,.66-.8,3.094,3.094,0,0,1,.871-.544,2.585,2.585,0,0,1,1-.2,2.2,2.2,0,0,1,.6.082,1.967,1.967,0,0,1,.543.246,1.911,1.911,0,0,1,.447.41,1.954,1.954,0,0,1,.312.574Z" transform="translate(-295.943 -312.248)" fill="#100f0c"></path><path id="Path_10261" data-name="Path 10261" d="M354.56,317.294l-1.158-2.248h-.013l-.412,2.248h-.695l.882-4.85h1.473a2.1,2.1,0,0,1,.772.111,1.082,1.082,0,0,1,.424.295,1.127,1.127,0,0,1,.232.531,1.987,1.987,0,0,1-.315,1.393,1.85,1.85,0,0,1-.479.449,1.6,1.6,0,0,1-.492.21,1.865,1.865,0,0,1-.354.052l1,1.809Zm-1.158-2.347h.476c.048,0,.114,0,.2-.007a2.093,2.093,0,0,0,.277-.033,1.918,1.918,0,0,0,.312-.085,1.137,1.137,0,0,0,.3-.164,1.112,1.112,0,0,0,.248-.265.982.982,0,0,0,.148-.4,1.007,1.007,0,0,0,0-.311.6.6,0,0,0-.125-.292.77.77,0,0,0-.286-.216,1.145,1.145,0,0,0-.479-.085h-.733Z" transform="translate(-303.644 -312.353)" fill="#100f0c"></path><path id="Path_10262" data-name="Path 10262" d="M369.4,314.777a2.862,2.862,0,0,1-.356.95,3.184,3.184,0,0,1-.666.8,3.332,3.332,0,0,1-.891.55,2.614,2.614,0,0,1-1.02.207,2.106,2.106,0,0,1-.949-.207,1.933,1.933,0,0,1-.682-.554,2.088,2.088,0,0,1-.373-.8,2.269,2.269,0,0,1-.009-.954,2.775,2.775,0,0,1,.351-.947,3.337,3.337,0,0,1,.659-.806,3.144,3.144,0,0,1,.884-.557,2.662,2.662,0,0,1,1.039-.206,2.146,2.146,0,0,1,.942.2,1.916,1.916,0,0,1,1.065,1.35A2.417,2.417,0,0,1,369.4,314.777Zm-.695.007a1.968,1.968,0,0,0,.007-.655,1.606,1.606,0,0,0-.222-.609,1.306,1.306,0,0,0-.476-.449,1.5,1.5,0,0,0-.75-.173,1.83,1.83,0,0,0-.83.183,2.316,2.316,0,0,0-.637.462,2.433,2.433,0,0,0-.435.606,2.308,2.308,0,0,0-.216.616,1.858,1.858,0,0,0-.009.626,1.593,1.593,0,0,0,.216.606,1.335,1.335,0,0,0,.473.455,1.479,1.479,0,0,0,.763.181,1.854,1.854,0,0,0,.83-.181,2.329,2.329,0,0,0,.637-.455,2.419,2.419,0,0,0,.434-.6A2.224,2.224,0,0,0,368.7,314.784Z" transform="translate(-310.111 -312.248)" fill="#100f0c"></path><path id="Path_10263" data-name="Path 10263" d="M382.906,315.728a2.033,2.033,0,0,1-.258.718,2.163,2.163,0,0,1-.45.527,2.243,2.243,0,0,1-.56.3,1.813,1.813,0,0,1-.631.111,1.424,1.424,0,0,1-1.036-.413,1.244,1.244,0,0,1-.257-.527,1.83,1.83,0,0,1,0-.718l.6-3.284h.695l-.591,3.264a1.083,1.083,0,0,0,0,.538.685.685,0,0,0,.193.311.646.646,0,0,0,.274.144,1.055,1.055,0,0,0,.244.036,1.187,1.187,0,0,0,.254-.036.978.978,0,0,0,.321-.144,1.166,1.166,0,0,0,.306-.311,1.4,1.4,0,0,0,.206-.538l.592-3.264h.7Z" transform="translate(-318.262 -312.353)" fill="#100f0c"></path><path id="Path_10264" data-name="Path 10264" d="M392.049,317.294h-.7l.882-4.85h1.376a2.134,2.134,0,0,1,.724.108,1.121,1.121,0,0,1,.47.3.987.987,0,0,1,.225.465,1.578,1.578,0,0,1,0,.593,1.989,1.989,0,0,1-.215.6,1.59,1.59,0,0,1-.393.462,1.793,1.793,0,0,1-.579.3,2.49,2.49,0,0,1-.762.108H392.4Zm.463-2.563h.682a1.406,1.406,0,0,0,.5-.079,1.121,1.121,0,0,0,.341-.2.8.8,0,0,0,.2-.262,1.169,1.169,0,0,0,.093-.282.983.983,0,0,0,.01-.282.514.514,0,0,0-.11-.262.7.7,0,0,0-.267-.2,1.16,1.16,0,0,0-.47-.079h-.682Z" transform="translate(-324.491 -312.353)" fill="#100f0c"></path><path id="Path_10265" data-name="Path 10265" d="M414.323,313.578q-.039-.059-.129-.174a1.5,1.5,0,0,0-.231-.229,1.3,1.3,0,0,0-.354-.2,1.386,1.386,0,0,0-.5-.082,1.822,1.822,0,0,0-.72.147,2.316,2.316,0,0,0-.63.4,2.372,2.372,0,0,0-.482.59,2.229,2.229,0,0,0-.271.721,1.75,1.75,0,0,0,.013.734,1.6,1.6,0,0,0,.277.6,1.371,1.371,0,0,0,.486.4,1.407,1.407,0,0,0,.64.147,1.749,1.749,0,0,0,.75-.174,2.347,2.347,0,0,0,.666-.469h.856a3.437,3.437,0,0,1-.566.6,3.037,3.037,0,0,1-.618.4,2.9,2.9,0,0,1-.627.22,2.745,2.745,0,0,1-.589.069,2.015,2.015,0,0,1-.914-.2,1.916,1.916,0,0,1-.672-.55,2.144,2.144,0,0,1-.38-.806,2.3,2.3,0,0,1-.016-.976,2.847,2.847,0,0,1,.376-.987,3.327,3.327,0,0,1,.675-.793,3.114,3.114,0,0,1,.875-.528,2.558,2.558,0,0,1,1.283-.17,2.267,2.267,0,0,1,.351.072,2.106,2.106,0,0,1,.363.144,1.791,1.791,0,0,1,.348.236,1.585,1.585,0,0,1,.4.465,3.237,3.237,0,0,1,.177.393Z" transform="translate(-334.58 -312.248)" fill="#100f0c"></path><path id="Path_10266" data-name="Path 10266" d="M429.486,314.777a2.871,2.871,0,0,1-.356.95,3.184,3.184,0,0,1-.666.8,3.334,3.334,0,0,1-.891.55,2.614,2.614,0,0,1-1.02.207,2.1,2.1,0,0,1-.949-.207,1.933,1.933,0,0,1-.682-.554,2.088,2.088,0,0,1-.373-.8,2.27,2.27,0,0,1-.009-.954,2.777,2.777,0,0,1,.351-.947,3.339,3.339,0,0,1,.659-.806,3.145,3.145,0,0,1,.884-.557,2.661,2.661,0,0,1,1.039-.206,2.146,2.146,0,0,1,.942.2,1.916,1.916,0,0,1,1.065,1.35A2.416,2.416,0,0,1,429.486,314.777Zm-.695.007a1.966,1.966,0,0,0,.007-.655,1.616,1.616,0,0,0-.222-.609,1.306,1.306,0,0,0-.476-.449,1.5,1.5,0,0,0-.75-.173,1.83,1.83,0,0,0-.83.183,2.308,2.308,0,0,0-.637.462,2.43,2.43,0,0,0-.435.606,2.309,2.309,0,0,0-.216.616,1.868,1.868,0,0,0-.01.626,1.609,1.609,0,0,0,.215.606,1.34,1.34,0,0,0,.473.455,1.479,1.479,0,0,0,.763.181,1.854,1.854,0,0,0,.83-.181,2.319,2.319,0,0,0,.637-.455,2.409,2.409,0,0,0,.434-.6A2.238,2.238,0,0,0,428.791,314.784Z" transform="translate(-342.172 -312.248)" fill="#100f0c"></path><path id="Path_10267" data-name="Path 10267" d="M443.622,317.294l.746-4.1h-.019l-2.348,4.1h-.418l-.861-4.1h-.013l-.746,4.1h-.695l.881-4.85h1.094l.752,3.716,2.11-3.716H445.2l-.881,4.85Z" transform="translate(-350.055 -312.353)" fill="#100f0c"></path><path id="Path_10268" data-name="Path 10268" d="M456.153,317.294h-.695l.882-4.85h1.376a2.136,2.136,0,0,1,.724.108,1.122,1.122,0,0,1,.469.3.983.983,0,0,1,.225.465,1.577,1.577,0,0,1,0,.593,1.989,1.989,0,0,1-.216.6,1.585,1.585,0,0,1-.393.462,1.788,1.788,0,0,1-.579.3,2.485,2.485,0,0,1-.762.108H456.5Zm.463-2.563h.682a1.4,1.4,0,0,0,.5-.079,1.125,1.125,0,0,0,.341-.2.806.806,0,0,0,.2-.262,1.19,1.19,0,0,0,.093-.282.968.968,0,0,0,.009-.282.509.509,0,0,0-.109-.262.7.7,0,0,0-.267-.2,1.16,1.16,0,0,0-.47-.079h-.682Z" transform="translate(-358.694 -312.353)" fill="#100f0c"></path><path id="Path_10269" data-name="Path 10269" d="M468.018,317.294l-.27-1.429h-1.711l-.785,1.429h-.734l2.689-4.85h.624l.926,4.85Zm-.386-2.078-.27-1.855h-.013l-.946,1.855Z" transform="translate(-363.529 -312.353)" fill="#100f0c"></path><path id="Path_10270" data-name="Path 10270" d="M481.317,317.294l-1.673-3.749h-.013l-.682,3.749h-.695l.881-4.85h.759l1.647,3.69h.013l.669-3.69h.695l-.882,4.85Z" transform="translate(-370.858 -312.353)" fill="#100f0c"></path><path id="Path_10271" data-name="Path 10271" d="M493.513,317.294l.315-1.75-.914-3.1h.779l.637,2.274,1.454-2.274h.772l-2.033,3.1-.315,1.75Z" transform="translate(-378.679 -312.353)" fill="#100f0c"></path></g></g><g id="Group_18771" data-name="Group 18771" transform="translate(0.279 0)"><rect id="Rectangle_17480" data-name="Rectangle 17480" width="72.899" height="37.418" transform="translate(0.699 0.699)" fill="#e23a1c"></rect><path id="Path_10272" data-name="Path 10272" d="M194.992,261.116h-74.3V222.3h74.3Zm-72.9-1.4h71.5V223.7h-71.5Z" transform="translate(-120.695 -222.301)" fill="#e23a1b"></path></g><path id="Path_10273" data-name="Path 10273" d="M384,261.116H278.613V222.3H384Zm-103.99-1.4H382.6V223.7H280.012Z" transform="translate(-204.675 -222.301)" fill="#e23a1b"></path><path id="Path_10274" data-name="Path 10274" d="M190.4,242.847V238.4L164.487,226.78l-32.423,15.941h-4.011v2.418h35.19V262.4h2.286v-2.46H175.75v2.46h2.53V245.138h15.776v-2.292Zm-27.153-.126H137.381l25.862-12.776Zm2.286,2.418h8.725l-8.725,10.639Zm10.221,12.688H166.9l8.852-10.787Zm2.53-19.554v4.448H165.529V229.566l18.912,8.706Z" transform="translate(-124.342 -224.691)" fill="#161615"></path><g id="Group_18772" data-name="Group 18772" transform="translate(3.685 41.486)"><path id="Path_10275" data-name="Path 10275" d="M128,316.8v-5.283h2.515v1.026h-1.44v.971H130.4v1.06h-1.329v1.153h1.44V316.8Z" transform="translate(-127.999 -311.388)" fill="#fff"></path><path id="Path_10276" data-name="Path 10276" d="M139.249,314.608h1.063c0,.032,0,.066,0,.1s0,.091,0,.165a2.3,2.3,0,0,1-.371,1.436,1.36,1.36,0,0,1-1.136.468,1.618,1.618,0,0,1-.772-.172,1.3,1.3,0,0,1-.519-.518,1.99,1.99,0,0,1-.2-.686,16.152,16.152,0,0,1,0-2.786,1.986,1.986,0,0,1,.2-.686,1.3,1.3,0,0,1,.513-.516,1.565,1.565,0,0,1,.759-.173,1.362,1.362,0,0,1,1.139.482,2.3,2.3,0,0,1,.38,1.443v.051l-1.05,0a2.007,2.007,0,0,0-.108-.757.351.351,0,0,0-.342-.218.357.357,0,0,0-.357.266,5.81,5.81,0,0,0-.1,1.4v.1a6.551,6.551,0,0,0,.1,1.5.359.359,0,0,0,.357.276.346.346,0,0,0,.34-.2,1.921,1.921,0,0,0,.1-.746Z" transform="translate(-132.941 -311.243)" fill="#fff"></path><path id="Path_10277" data-name="Path 10277" d="M147.953,311.515h1.092v3.31a2.986,2.986,0,0,0,.083.93.327.327,0,0,0,.586-.007,3.055,3.055,0,0,0,.081-.923v-3.31h1.071v3.372a6.161,6.161,0,0,1-.043.856,1.8,1.8,0,0,1-.143.493,1.087,1.087,0,0,1-.477.523,1.724,1.724,0,0,1-.813.167,1.591,1.591,0,0,1-.754-.156,1.1,1.1,0,0,1-.462-.5,1.94,1.94,0,0,1-.173-.624,11.406,11.406,0,0,1-.049-1.287Z" transform="translate(-138.646 -311.388)" fill="#fff"></path><path id="Path_10278" data-name="Path 10278" d="M157.5,316.8l1.008-5.283h1.285l1,5.283h-1.08l-.135-1.012h-.849l-.135,1.012Zm1.335-1.966h.621l-.309-2.305Z" transform="translate(-143.738 -311.388)" fill="#fff"></path><path id="Path_10279" data-name="Path 10279" d="M168.093,316.8v-5.283h1.191a2.717,2.717,0,0,1,.97.129,1.027,1.027,0,0,1,.5.44,1.779,1.779,0,0,1,.2.63,17.311,17.311,0,0,1,0,2.884,1.807,1.807,0,0,1-.2.631,1.028,1.028,0,0,1-.5.441,2.728,2.728,0,0,1-.97.129Zm1.086-4.3v3.335a.3.3,0,0,0,.063.007h.093a.67.67,0,0,0,.29-.055.434.434,0,0,0,.188-.175.926.926,0,0,0,.082-.371q.023-.274.023-1.077v-.24q0-.659-.021-.89a.733.733,0,0,0-.078-.318.386.386,0,0,0-.185-.168.752.752,0,0,0-.31-.055l-.089,0C169.214,312.5,169.2,312.5,169.179,312.5Z" transform="translate(-149.392 -311.388)" fill="#fff"></path><path id="Path_10280" data-name="Path 10280" d="M178.211,314.011a11.439,11.439,0,0,1,.06-1.393,1.986,1.986,0,0,1,.2-.686,1.286,1.286,0,0,1,.519-.52,1.634,1.634,0,0,1,.771-.169,1.615,1.615,0,0,1,.77.169,1.3,1.3,0,0,1,.515.52,1.933,1.933,0,0,1,.2.689,16.055,16.055,0,0,1,0,2.777,1.935,1.935,0,0,1-.2.692,1.285,1.285,0,0,1-.515.518,1.815,1.815,0,0,1-1.541,0,1.3,1.3,0,0,1-.519-.518,1.989,1.989,0,0,1-.2-.686A11.443,11.443,0,0,1,178.211,314.011Zm1.993.477v-.954a3.464,3.464,0,0,0-.1-1.086.356.356,0,0,0-.353-.208.347.347,0,0,0-.345.213,3.521,3.521,0,0,0-.1,1.081v.954a3.522,3.522,0,0,0,.1,1.075.391.391,0,0,0,.7.006A3.507,3.507,0,0,0,180.2,314.488Z" transform="translate(-154.79 -311.243)" fill="#fff"></path><path id="Path_10281" data-name="Path 10281" d="M188.9,316.8v-5.283h1.216a4.194,4.194,0,0,1,.867.063.959.959,0,0,1,.438.218,1.137,1.137,0,0,1,.3.456,1.9,1.9,0,0,1,.1.645,1.851,1.851,0,0,1-.139.765,1.2,1.2,0,0,1-.434.508q.5.254.528,1.2v.017q0,.1.006.288a1.68,1.68,0,0,0,.258,1.118h-1.264a2.488,2.488,0,0,1-.062-.345,3.576,3.576,0,0,1-.019-.386c0-.084,0-.187.006-.307s.006-.2.006-.235a1.367,1.367,0,0,0-.111-.662.432.432,0,0,0-.4-.178h-.222V316.8Zm1.068-3.084.071,0,.064,0a.618.618,0,0,0,.476-.154.775.775,0,0,0,.139-.521.677.677,0,0,0-.139-.482.65.65,0,0,0-.476-.142l-.064,0-.071,0Z" transform="translate(-160.494 -311.388)" fill="#fff"></path></g><g id="Group_18774" data-name="Group 18774" transform="translate(85.376 3.124)"><g id="Group_18773" data-name="Group 18773"><path id="Path_10282" data-name="Path 10282" d="M313.985,237.849a4.977,4.977,0,0,1-1.557,3.514,5.265,5.265,0,0,1-3.706,1.3,4.977,4.977,0,0,1-4.092-1.8,7.782,7.782,0,0,1-1.461-5.038,7.655,7.655,0,0,1,1.489-5.073A5.3,5.3,0,0,1,308.939,229a5.09,5.09,0,0,1,3.586,1.211,4.821,4.821,0,0,1,1.445,3.421h-2.406a2.6,2.6,0,0,0-.821-1.678,2.666,2.666,0,0,0-1.8-.577,2.848,2.848,0,0,0-2.446,1.136,6.915,6.915,0,0,0,0,6.587,2.749,2.749,0,0,0,2.37,1.154,2.657,2.657,0,0,0,1.819-.621,2.984,2.984,0,0,0,.917-1.783Z" transform="translate(-303.153 -228.998)" fill="#0f0e0b"></path><path id="Path_10283" data-name="Path 10283" d="M330.037,241.384a5.54,5.54,0,0,1,1.183-3.752,4.551,4.551,0,0,1,6.5,0,6.535,6.535,0,0,1,0,7.512,4.55,4.55,0,0,1-6.5,0A5.552,5.552,0,0,1,330.037,241.384Zm2.374,0a3.851,3.851,0,0,0,.535,2.2,1.873,1.873,0,0,0,3.034,0,4.783,4.783,0,0,0,0-4.39,1.883,1.883,0,0,0-3.038,0A3.81,3.81,0,0,0,332.411,241.384Z" transform="translate(-317.489 -232.877)" fill="#0f0e0b"></path><path id="Path_10284" data-name="Path 10284" d="M353.351,246.284v-9.572h2.293v1.136A3.271,3.271,0,0,1,356.8,236.8a3.176,3.176,0,0,1,1.489-.348,2.731,2.731,0,0,1,2.169.824,3.677,3.677,0,0,1,.72,2.479v6.526h-2.342V240.5a2.581,2.581,0,0,0-.318-1.471,1.189,1.189,0,0,0-1.034-.44,1.67,1.67,0,0,0-1.312.542,2.14,2.14,0,0,0-.483,1.475v5.68Z" transform="translate(-329.928 -232.977)" fill="#0f0e0b"></path><path id="Path_10285" data-name="Path 10285" d="M378.145,243.655q-.322.009-.769.031t-.567.022a2.424,2.424,0,0,1-1.84-.55,3.39,3.39,0,0,1-.494-2.171v-5.178h-1.159v-1.8h1.159V231.4h2.317v2.616h1.352v1.8h-1.352v5.3a.615.615,0,0,0,.153.5,1.118,1.118,0,0,0,.627.118h.571Z" transform="translate(-340.581 -230.277)" fill="#0f0e0b"></path><path id="Path_10286" data-name="Path 10286" d="M392.337,243.278h2.334a4.132,4.132,0,0,1-1.429,2.373,4.063,4.063,0,0,1-2.62.859,3.643,3.643,0,0,1-3.01-1.4,5.91,5.91,0,0,1-1.111-3.782,5.739,5.739,0,0,1,1.095-3.707,3.639,3.639,0,0,1,2.994-1.356A3.79,3.79,0,0,1,393.7,237.6a5.847,5.847,0,0,1,1.094,3.8q0,.274,0,.41c0,.091-.009.178-.02.26h-5.843a2.907,2.907,0,0,0,.5,1.7,1.573,1.573,0,0,0,1.308.573,1.56,1.56,0,0,0,1.6-1.066Zm-3.412-2.888h3.445a2.316,2.316,0,0,0-.471-1.475,1.575,1.575,0,0,0-1.259-.507,1.5,1.5,0,0,0-1.2.511A2.5,2.5,0,0,0,388.924,240.389Z" transform="translate(-347.616 -232.877)" fill="#0f0e0b"></path><path id="Path_10287" data-name="Path 10287" d="M413.251,242.573h2.309a4.375,4.375,0,0,1-1.215,2.879,3.751,3.751,0,0,1-2.752,1.057,3.611,3.611,0,0,1-2.99-1.361,5.9,5.9,0,0,1-1.083-3.765,5.79,5.79,0,0,1,1.107-3.756,3.712,3.712,0,0,1,3.046-1.361,3.766,3.766,0,0,1,2.724.986A4.039,4.039,0,0,1,415.544,240h-2.326a1.984,1.984,0,0,0-.491-1.171,1.384,1.384,0,0,0-1.038-.405,1.4,1.4,0,0,0-1.3.749,4.613,4.613,0,0,0-.431,2.246,4.162,4.162,0,0,0,.447,2.126,1.417,1.417,0,0,0,1.284.744,1.348,1.348,0,0,0,1.046-.431A2.36,2.36,0,0,0,413.251,242.573Z" transform="translate(-358.831 -232.877)" fill="#0f0e0b"></path><path id="Path_10288" data-name="Path 10288" d="M427.866,241.384a5.54,5.54,0,0,1,1.183-3.752,4.551,4.551,0,0,1,6.5,0,6.535,6.535,0,0,1,0,7.512,4.55,4.55,0,0,1-6.5,0A5.552,5.552,0,0,1,427.866,241.384Zm2.374,0a3.851,3.851,0,0,0,.535,2.2,1.873,1.873,0,0,0,3.034,0,4.783,4.783,0,0,0,0-4.39,1.883,1.883,0,0,0-3.038,0A3.81,3.81,0,0,0,430.24,241.384Z" transform="translate(-369.686 -232.877)" fill="#0f0e0b"></path><path id="Path_10289" data-name="Path 10289" d="M451.18,246.284v-9.572h2.293v1.136a3.271,3.271,0,0,1,1.159-1.044,3.178,3.178,0,0,1,1.489-.348,2.73,2.73,0,0,1,2.169.824,3.676,3.676,0,0,1,.72,2.479v6.526h-2.342V240.5a2.585,2.585,0,0,0-.317-1.471,1.191,1.191,0,0,0-1.035-.44,1.67,1.67,0,0,0-1.312.542,2.14,2.14,0,0,0-.483,1.475v5.68Z" transform="translate(-382.126 -232.977)" fill="#0f0e0b"></path><path id="Path_10290" data-name="Path 10290" d="M312.181,273.044a4.36,4.36,0,0,1-1.5,1.436,4.072,4.072,0,0,1-1.976.458,4.95,4.95,0,0,1-4.028-1.889,8.765,8.765,0,0,1,0-9.921,5.049,5.049,0,0,1,4.1-1.858,5.515,5.515,0,0,1,3.638,1.167,4.794,4.794,0,0,1,1.674,3.21h-2.487a2.549,2.549,0,0,0-.922-1.541,2.923,2.923,0,0,0-1.815-.529,2.713,2.713,0,0,0-2.338,1.193,5.605,5.605,0,0,0-.849,3.3,5.468,5.468,0,0,0,.886,3.311,2.856,2.856,0,0,0,2.43,1.2,2.694,2.694,0,0,0,1.939-.749,3.406,3.406,0,0,0,.966-2.052H309.2v-2.219h4.909v7.018h-1.634Z" transform="translate(-303.135 -246.217)" fill="#0f0e0b"></path><path id="Path_10291" data-name="Path 10291" d="M339.9,269.276v9.572h-2.293v-1.136a3.357,3.357,0,0,1-1.163,1.043,3.169,3.169,0,0,1-1.493.348,2.711,2.711,0,0,1-2.161-.828,3.68,3.68,0,0,1-.72-2.474v-6.526h2.342v5.786a2.561,2.561,0,0,0,.314,1.458,1.191,1.191,0,0,0,1.038.436,1.672,1.672,0,0,0,1.308-.542,2.127,2.127,0,0,0,.487-1.475v-5.663Z" transform="translate(-318.575 -250.489)" fill="#0f0e0b"></path><path id="Path_10292" data-name="Path 10292" d="M358.616,277.267a3.017,3.017,0,0,1-1.159,1.14,3.42,3.42,0,0,1-1.666.392,2.456,2.456,0,0,1-1.96-.793,3.335,3.335,0,0,1-.688-2.254,2.867,2.867,0,0,1,.688-2.07,4.025,4.025,0,0,1,2.274-.977q.362-.062.949-.141,1.489-.211,1.489-.942a.983.983,0,0,0-.33-.833,1.859,1.859,0,0,0-1.1-.251,1.679,1.679,0,0,0-1.086.308,1.07,1.07,0,0,0-.378.881v.141h-2.19v-.176a2.93,2.93,0,0,1,.95-2.312,3.822,3.822,0,0,1,2.624-.841,4.815,4.815,0,0,1,2.813.7,2.312,2.312,0,0,1,.978,2.008v5.442a2.662,2.662,0,0,0,.113.894.834.834,0,0,0,.378.444v.431h-2.439a2.378,2.378,0,0,1-.185-.546A3.464,3.464,0,0,1,358.616,277.267Zm-.04-3.522a5.915,5.915,0,0,1-1.316.466q-.745.176-.769.185a1.837,1.837,0,0,0-.865.484,1.2,1.2,0,0,0-.246.8,1.08,1.08,0,0,0,1.16,1.153,1.936,1.936,0,0,0,1.493-.585,2.259,2.259,0,0,0,.543-1.6Z" transform="translate(-329.818 -250.096)" fill="#0f0e0b"></path><path id="Path_10293" data-name="Path 10293" d="M374.156,282.688v-2.07q.112.017.233.027c.081.006.185.009.314.009a1.384,1.384,0,0,0,1.038-.357,1.481,1.481,0,0,0,.346-1.07.718.718,0,0,0-.016-.132c-.011-.053-.022-.1-.033-.132l-3.155-9.687h2.575l1.843,6.9,1.795-6.9h2.462l-3.6,11.29a3.467,3.467,0,0,1-1.006,1.731,2.952,2.952,0,0,1-1.811.462c-.145,0-.3-.006-.467-.017S374.339,282.711,374.156,282.688Z" transform="translate(-340.351 -250.489)" fill="#0f0e0b"></path><path id="Path_10294" data-name="Path 10294" d="M399.221,277.267a3.013,3.013,0,0,1-1.159,1.14,3.418,3.418,0,0,1-1.666.392,2.455,2.455,0,0,1-1.96-.793,3.332,3.332,0,0,1-.688-2.254,2.865,2.865,0,0,1,.688-2.07,4.022,4.022,0,0,1,2.274-.977q.362-.062.949-.141,1.489-.211,1.489-.942a.981.981,0,0,0-.33-.833,1.859,1.859,0,0,0-1.1-.251,1.679,1.679,0,0,0-1.086.308,1.071,1.071,0,0,0-.378.881v.141h-2.189v-.176a2.93,2.93,0,0,1,.95-2.312,3.82,3.82,0,0,1,2.623-.841,4.814,4.814,0,0,1,2.813.7,2.312,2.312,0,0,1,.978,2.008v5.442a2.666,2.666,0,0,0,.112.894.835.835,0,0,0,.379.444v.431h-2.439a2.356,2.356,0,0,1-.185-.546A3.47,3.47,0,0,1,399.221,277.267Zm-.04-3.522a5.9,5.9,0,0,1-1.316.466q-.745.176-.768.185a1.841,1.841,0,0,0-.866.484,1.206,1.206,0,0,0-.245.8,1.08,1.08,0,0,0,1.159,1.153,1.935,1.935,0,0,0,1.493-.585,2.257,2.257,0,0,0,.543-1.6Z" transform="translate(-351.483 -250.096)" fill="#0f0e0b"></path><path id="Path_10295" data-name="Path 10295" d="M422.992,268.9v13.412h-2.286v-5.081a3.483,3.483,0,0,1-1.114,1.185,2.707,2.707,0,0,1-1.445.383,3.081,3.081,0,0,1-2.62-1.4,6.17,6.17,0,0,1-1-3.672,6.35,6.35,0,0,1,1-3.721,3.037,3.037,0,0,1,2.587-1.431,2.929,2.929,0,0,1,1.517.392,3.115,3.115,0,0,1,1.107,1.158V268.9Zm-6.149,4.72a4.057,4.057,0,0,0,.5,2.215,1.626,1.626,0,0,0,1.449.762,1.594,1.594,0,0,0,1.424-.757,4.1,4.1,0,0,0,.491-2.219,3.615,3.615,0,0,0-.515-2.091,1.668,1.668,0,0,0-1.449-.736,1.6,1.6,0,0,0-1.388.753A3.651,3.651,0,0,0,416.843,273.623Z" transform="translate(-362.568 -250.116)" fill="#0f0e0b"></path><path id="Path_10296" data-name="Path 10296" d="M445.773,269.276v9.572h-2.294v-1.136a3.348,3.348,0,0,1-1.163,1.043,3.17,3.17,0,0,1-1.493.348,2.712,2.712,0,0,1-2.161-.828,3.68,3.68,0,0,1-.72-2.474v-6.526h2.342v5.786a2.561,2.561,0,0,0,.314,1.458,1.191,1.191,0,0,0,1.038.436,1.672,1.672,0,0,0,1.308-.542,2.127,2.127,0,0,0,.487-1.475v-5.663Z" transform="translate(-375.063 -250.489)" fill="#0f0e0b"></path><path id="Path_10297" data-name="Path 10297" d="M460.1,264.322v-2.334h2.342v2.334Zm0,10.638v-9.572h2.342v9.572Z" transform="translate(-386.886 -246.6)" fill="#0f0e0b"></path><path id="Path_10298" data-name="Path 10298" d="M470.663,274.96V261.988h2.342V274.96Z" transform="translate(-392.521 -246.6)" fill="#0f0e0b"></path></g></g></svg> 