<?xml version="1.0" encoding="UTF-8"?> <svg xmlns="http://www.w3.org/2000/svg" width="164.716" height="45.458" viewBox="0 0 164.716 45.458"><g id="Group_7" data-name="Group 7" transform="translate(0.5 0.5)"><path id="Exclusion_2" data-name="Exclusion 2" d="M49.958,7.939H0V0H49.958V7.938ZM26.24,1.472a1.5,1.5,0,0,0-.707.155,1.186,1.186,0,0,0-.475.476,1.827,1.827,0,0,0-.182.629,10.342,10.342,0,0,0-.055,1.275,10.342,10.342,0,0,0,.055,1.275,1.823,1.823,0,0,0,.182.628,1.191,1.191,0,0,0,.475.474,1.659,1.659,0,0,0,1.411,0,1.177,1.177,0,0,0,.472-.474,1.76,1.76,0,0,0,.186-.633,10.4,10.4,0,0,0,.056-1.271A10.4,10.4,0,0,0,27.6,2.735a1.768,1.768,0,0,0-.186-.632,1.2,1.2,0,0,0-.472-.476A1.484,1.484,0,0,0,26.24,1.472ZM11.9,1.589v2.6a10.66,10.66,0,0,0,.045,1.178,1.793,1.793,0,0,0,.158.571,1.01,1.01,0,0,0,.423.457,1.46,1.46,0,0,0,.69.143,1.586,1.586,0,0,0,.744-.153.994.994,0,0,0,.437-.479,1.663,1.663,0,0,0,.13-.451,5.729,5.729,0,0,0,.04-.784V1.589h-.981V4.62a2.812,2.812,0,0,1-.075.846.3.3,0,0,1-.536.006A2.7,2.7,0,0,1,12.9,4.62V1.589ZM8.733,1.472a1.436,1.436,0,0,0-.695.158,1.192,1.192,0,0,0-.47.473,1.827,1.827,0,0,0-.182.629,10.649,10.649,0,0,0-.055,1.275,10.649,10.649,0,0,0,.055,1.275,1.823,1.823,0,0,0,.182.628,1.191,1.191,0,0,0,.475.474,1.482,1.482,0,0,0,.707.158,1.248,1.248,0,0,0,1.04-.429,2.1,2.1,0,0,0,.34-1.314c0-.068,0-.118,0-.151s0-.065,0-.095H9.15v.214a1.736,1.736,0,0,1-.089.683.319.319,0,0,1-.311.184.331.331,0,0,1-.328-.253,6.058,6.058,0,0,1-.087-1.374V3.917A5.383,5.383,0,0,1,8.422,2.63a.329.329,0,0,1,.328-.243.321.321,0,0,1,.313.2,1.859,1.859,0,0,1,.1.693l.962,0V3.235a2.117,2.117,0,0,0-.348-1.321A1.251,1.251,0,0,0,8.733,1.472ZM30.367,4.491h.2a.4.4,0,0,1,.365.164,1.236,1.236,0,0,1,.1.607c0,.033,0,.1-.005.215s-.005.2-.005.281a3.357,3.357,0,0,0,.018.354,2.321,2.321,0,0,0,.056.316h1.157A1.549,1.549,0,0,1,32.022,5.4q0-.173-.005-.265V5.123c-.017-.578-.18-.949-.484-1.1a1.1,1.1,0,0,0,.4-.465,1.7,1.7,0,0,0,.128-.7,1.763,1.763,0,0,0-.089-.591,1.047,1.047,0,0,0-.271-.418.865.865,0,0,0-.4-.2,3.747,3.747,0,0,0-.794-.059H29.389V6.427h.978V4.492ZM20.5,1.589V6.427h1.092a2.513,2.513,0,0,0,.887-.118.946.946,0,0,0,.459-.4,1.636,1.636,0,0,0,.186-.578,10.2,10.2,0,0,0,.056-1.319,10.242,10.242,0,0,0-.056-1.321,1.62,1.62,0,0,0-.186-.577.943.943,0,0,0-.459-.4,2.5,2.5,0,0,0-.887-.118ZM17.1,5.5h.778L18,6.427h.989l-.913-4.838H16.9l-.923,4.838h1L17.1,5.5ZM3.375,1.589V6.427h2.3V5.443H4.359V4.388H5.576V3.416H4.359V2.528H5.678v-.94ZM26.24,5.629a.322.322,0,0,1-.321-.2,3.231,3.231,0,0,1-.088-.985V3.571a3.233,3.233,0,0,1,.088-.99.319.319,0,0,1,.316-.194.324.324,0,0,1,.323.19,3.188,3.188,0,0,1,.089.995v.873a3.171,3.171,0,0,1-.088.99A.321.321,0,0,1,26.24,5.629Zm-4.6-.078h-.085a.256.256,0,0,1-.058-.006V2.49l.019,0,.031,0c.02,0,.047,0,.081,0a.675.675,0,0,1,.284.05.35.35,0,0,1,.169.154.678.678,0,0,1,.071.291c.013.139.02.406.02.814v.22c0,.484-.007.816-.021.986a.837.837,0,0,1-.076.339.4.4,0,0,1-.172.16A.621.621,0,0,1,21.638,5.55Zm-3.871-.924H17.2l.286-2.11.282,2.109ZM30.491,3.608a.549.549,0,0,1-.059,0l-.065,0V2.424h.016l.049,0,.059,0a.6.6,0,0,1,.436.13.626.626,0,0,1,.128.442.714.714,0,0,1-.128.477A.569.569,0,0,1,30.491,3.608Z" transform="translate(0 36.519)" fill="#fff" stroke="rgba(0,0,0,0)" stroke-miterlimit="10" stroke-width="1"></path><g id="Group_2" data-name="Group 2" transform="translate(54.634 38.42)"><g id="Group_1" data-name="Group 1"><path id="Path_1" data-name="Path 1" d="M251.211,316.885l-.247-1.308H249.4l-.718,1.308h-.672l2.462-4.441h.572l.848,4.441Zm-.353-1.9-.248-1.7H250.6l-.866,1.7Z" transform="translate(-248.006 -312.36)" fill="#fff"></path><path id="Path_2" data-name="Path 2" d="M264.547,316.885l-1.532-3.433H263l-.624,3.433h-.636l.807-4.441h.7l1.508,3.379h.012l.613-3.379h.636l-.807,4.441Z" transform="translate(-255.875 -312.36)" fill="#fff"></path><path id="Path_3" data-name="Path 3" d="M282.637,316.885l.807-4.441h.636l-.807,4.441Z" transform="translate(-267.845 -312.36)" fill="#fff"></path><path id="Path_4" data-name="Path 4" d="M293.691,313.466c-.023-.036-.063-.089-.118-.159a1.371,1.371,0,0,0-.212-.21,1.186,1.186,0,0,0-.324-.18,1.264,1.264,0,0,0-.459-.075,1.67,1.67,0,0,0-.66.135,2.136,2.136,0,0,0-.577.363,2.191,2.191,0,0,0-.442.54,2.041,2.041,0,0,0-.247.66,1.6,1.6,0,0,0,.012.672,1.48,1.48,0,0,0,.254.546,1.251,1.251,0,0,0,.445.369,1.288,1.288,0,0,0,.586.135,1.6,1.6,0,0,0,.686-.159,2.159,2.159,0,0,0,.609-.429h.783a3.128,3.128,0,0,1-.518.552,2.783,2.783,0,0,1-.565.366,2.669,2.669,0,0,1-.574.2,2.515,2.515,0,0,1-.539.063,1.842,1.842,0,0,1-.836-.186,1.761,1.761,0,0,1-.616-.5,1.968,1.968,0,0,1-.347-.738,2.106,2.106,0,0,1-.015-.894,2.6,2.6,0,0,1,.345-.9,3.046,3.046,0,0,1,.618-.726,2.851,2.851,0,0,1,.8-.483,2.342,2.342,0,0,1,1.175-.156,2.079,2.079,0,0,1,.321.066,1.932,1.932,0,0,1,.333.132,1.612,1.612,0,0,1,.318.216,1.455,1.455,0,0,1,.368.426,2.884,2.884,0,0,1,.162.36Z" transform="translate(-272.049 -312.248)" fill="#fff"></path><path id="Path_5" data-name="Path 5" d="M304.7,316.885l.7-3.847h-.837l.106-.594h2.31l-.106.594h-.836l-.7,3.847Z" transform="translate(-280.407 -312.36)" fill="#fff"></path><path id="Path_6" data-name="Path 6" d="M313.294,315.459a1.178,1.178,0,0,0-.015.189.8.8,0,0,0,.041.27.528.528,0,0,0,.168.24.551.551,0,0,0,.365.105.809.809,0,0,0,.536-.2.908.908,0,0,0,.3-.552.555.555,0,0,0-.012-.306.5.5,0,0,0-.136-.2.729.729,0,0,0-.2-.126c-.076-.032-.15-.064-.221-.1q-.2-.084-.333-.144a2.426,2.426,0,0,1-.224-.114.822.822,0,0,1-.15-.111c-.039-.038-.081-.081-.124-.129a.7.7,0,0,1-.159-.375,1.508,1.508,0,0,1,.012-.459,1.408,1.408,0,0,1,.15-.405,1.559,1.559,0,0,1,.3-.39,1.637,1.637,0,0,1,.433-.294,1.3,1.3,0,0,1,.56-.117,1.263,1.263,0,0,1,.483.087.886.886,0,0,1,.348.249.93.93,0,0,1,.189.39,1.311,1.311,0,0,1,.006.51h-.636a.72.72,0,0,0-.006-.309.439.439,0,0,0-.112-.2.423.423,0,0,0-.183-.105.733.733,0,0,0-.2-.03.584.584,0,0,0-.259.057.783.783,0,0,0-.21.147.805.805,0,0,0-.147.2.732.732,0,0,0-.073.2.469.469,0,0,0,.014.267.434.434,0,0,0,.124.171.738.738,0,0,0,.173.108c.063.028.116.05.159.066q.189.078.41.165a1.285,1.285,0,0,1,.392.24.931.931,0,0,1,.256.4,1.317,1.317,0,0,1,.015.648,1.673,1.673,0,0,1-.542.96,1.555,1.555,0,0,1-.474.282,1.587,1.587,0,0,1-.569.1,1.364,1.364,0,0,1-.448-.078.963.963,0,0,1-.386-.249,1.07,1.07,0,0,1-.241-.435,1.345,1.345,0,0,1-.009-.636Z" transform="translate(-285.024 -312.248)" fill="#fff"></path><path id="Path_7" data-name="Path 7" d="M323.253,316.885l.807-4.441h.636l-.807,4.441Z" transform="translate(-291.112 -312.36)" fill="#fff"></path><path id="Path_8" data-name="Path 8" d="M341.535,313.448c-.039-.052-.088-.112-.144-.18a1.271,1.271,0,0,0-.215-.2,1.257,1.257,0,0,0-.306-.162,1.2,1.2,0,0,0-.419-.066,1.643,1.643,0,0,0-.66.138,2.1,2.1,0,0,0-.58.375,2.238,2.238,0,0,0-.442.549,2.077,2.077,0,0,0-.244.66,1.562,1.562,0,0,0,.018.678,1.412,1.412,0,0,0,.265.537,1.3,1.3,0,0,0,.45.354,1.32,1.32,0,0,0,.581.129c.02,0,.06,0,.123-.006a1.384,1.384,0,0,0,.233-.039,2.223,2.223,0,0,0,.306-.1,1.815,1.815,0,0,0,.351-.189,2.109,2.109,0,0,0,.356-.309,2.5,2.5,0,0,0,.333-.462h-2.032l.106-.594h2.757a2.756,2.756,0,0,1-.394.987,3,3,0,0,1-.651.718,2.775,2.775,0,0,1-.8.438,2.5,2.5,0,0,1-.825.15,1.916,1.916,0,0,1-.851-.183,1.713,1.713,0,0,1-.616-.5,1.861,1.861,0,0,1-.336-.729,2.215,2.215,0,0,1-.012-.882,2.737,2.737,0,0,1,.336-.9,3,3,0,0,1,.6-.736,2.834,2.834,0,0,1,.8-.5,2.368,2.368,0,0,1,.913-.183,2.015,2.015,0,0,1,.545.075,1.8,1.8,0,0,1,.5.225,1.75,1.75,0,0,1,.409.375,1.79,1.79,0,0,1,.286.525Z" transform="translate(-299.474 -312.248)" fill="#fff"></path><path id="Path_9" data-name="Path 9" d="M354.368,316.885l-1.06-2.058H353.3l-.377,2.058h-.636l.807-4.441h1.349a1.926,1.926,0,0,1,.707.1.99.99,0,0,1,.389.27,1.032,1.032,0,0,1,.212.486,1.819,1.819,0,0,1-.289,1.275,1.692,1.692,0,0,1-.439.411,1.468,1.468,0,0,1-.45.192,1.711,1.711,0,0,1-.324.048l.919,1.656Zm-1.06-2.149h.436c.044,0,.1,0,.183-.006a1.912,1.912,0,0,0,.253-.03,1.753,1.753,0,0,0,.286-.078,1.039,1.039,0,0,0,.277-.15,1.015,1.015,0,0,0,.227-.243.9.9,0,0,0,.136-.363.922.922,0,0,0,0-.285.551.551,0,0,0-.115-.267.7.7,0,0,0-.262-.2,1.049,1.049,0,0,0-.439-.078h-.671Z" transform="translate(-307.742 -312.36)" fill="#fff"></path><path id="Path_10" data-name="Path 10" d="M368.976,314.564a2.621,2.621,0,0,1-.326.87,2.916,2.916,0,0,1-.61.73,3.052,3.052,0,0,1-.816.5,2.393,2.393,0,0,1-.934.189,1.928,1.928,0,0,1-.869-.189,1.77,1.77,0,0,1-.625-.507,1.913,1.913,0,0,1-.342-.735,2.078,2.078,0,0,1-.009-.874,2.54,2.54,0,0,1,.321-.867,3.056,3.056,0,0,1,.6-.738,2.88,2.88,0,0,1,.81-.51,2.438,2.438,0,0,1,.952-.189,1.966,1.966,0,0,1,.863.183,1.755,1.755,0,0,1,.975,1.237A2.214,2.214,0,0,1,368.976,314.564Zm-.636.006a1.8,1.8,0,0,0,.006-.6,1.473,1.473,0,0,0-.2-.558,1.2,1.2,0,0,0-.436-.411,1.373,1.373,0,0,0-.686-.159,1.676,1.676,0,0,0-.76.168,2.117,2.117,0,0,0-.583.423,2.231,2.231,0,0,0-.4.555,2.115,2.115,0,0,0-.2.564,1.7,1.7,0,0,0-.009.573,1.46,1.46,0,0,0,.2.555,1.223,1.223,0,0,0,.433.417,1.354,1.354,0,0,0,.7.165,1.7,1.7,0,0,0,.76-.165,2.131,2.131,0,0,0,.583-.417,2.215,2.215,0,0,0,.4-.549A2.039,2.039,0,0,0,368.34,314.57Z" transform="translate(-314.687 -312.248)" fill="#fff"></path><path id="Path_11" data-name="Path 11" d="M382.635,315.451a1.864,1.864,0,0,1-.236.657,1.981,1.981,0,0,1-.412.483,2.057,2.057,0,0,1-.513.276,1.662,1.662,0,0,1-.577.1,1.3,1.3,0,0,1-.948-.378,1.137,1.137,0,0,1-.236-.483,1.675,1.675,0,0,1,0-.657l.548-3.007h.636l-.542,2.989a.992.992,0,0,0,0,.493.627.627,0,0,0,.176.285.592.592,0,0,0,.251.132.965.965,0,0,0,.223.033,1.085,1.085,0,0,0,.233-.033.9.9,0,0,0,.294-.132,1.067,1.067,0,0,0,.28-.285,1.286,1.286,0,0,0,.188-.493l.542-2.989h.636Z" transform="translate(-323.438 -312.36)" fill="#fff"></path><path id="Path_12" data-name="Path 12" d="M391.99,316.885h-.636l.807-4.441h1.26a1.953,1.953,0,0,1,.663.1,1.026,1.026,0,0,1,.43.276.9.9,0,0,1,.206.426,1.444,1.444,0,0,1,0,.543,1.824,1.824,0,0,1-.2.546,1.459,1.459,0,0,1-.36.423,1.641,1.641,0,0,1-.53.276,2.281,2.281,0,0,1-.7.1h-.624Zm.424-2.347h.624a1.288,1.288,0,0,0,.46-.072,1.026,1.026,0,0,0,.312-.18.732.732,0,0,0,.186-.24,1.064,1.064,0,0,0,.085-.258.9.9,0,0,0,.009-.258.471.471,0,0,0-.1-.24.642.642,0,0,0-.244-.18,1.063,1.063,0,0,0-.43-.072h-.624Z" transform="translate(-330.125 -312.36)" fill="#fff"></path><path id="Path_13" data-name="Path 13" d="M413.981,313.466c-.024-.036-.063-.089-.118-.159a1.367,1.367,0,0,0-.212-.21,1.189,1.189,0,0,0-.324-.18,1.268,1.268,0,0,0-.46-.075,1.668,1.668,0,0,0-.66.135,2.122,2.122,0,0,0-.577.363,2.171,2.171,0,0,0-.442.54,2.041,2.041,0,0,0-.248.66,1.6,1.6,0,0,0,.012.672,1.465,1.465,0,0,0,.253.546,1.254,1.254,0,0,0,.445.369,1.288,1.288,0,0,0,.586.135,1.6,1.6,0,0,0,.686-.159,2.152,2.152,0,0,0,.61-.429h.784a3.148,3.148,0,0,1-.519.552,2.781,2.781,0,0,1-.566.366,2.66,2.66,0,0,1-.574.2,2.513,2.513,0,0,1-.539.063,1.845,1.845,0,0,1-.837-.186,1.755,1.755,0,0,1-.615-.5,1.961,1.961,0,0,1-.348-.738,2.1,2.1,0,0,1-.015-.894,2.61,2.61,0,0,1,.345-.9,3.046,3.046,0,0,1,.618-.726,2.85,2.85,0,0,1,.8-.483,2.34,2.34,0,0,1,1.175-.156,2.073,2.073,0,0,1,.321.066,1.928,1.928,0,0,1,.333.132,1.64,1.64,0,0,1,.319.216,1.451,1.451,0,0,1,.368.426,2.965,2.965,0,0,1,.162.36Z" transform="translate(-340.958 -312.248)" fill="#fff"></path><path id="Path_14" data-name="Path 14" d="M429.065,314.564a2.634,2.634,0,0,1-.326.87,2.916,2.916,0,0,1-.61.73,3.052,3.052,0,0,1-.816.5,2.393,2.393,0,0,1-.934.189,1.927,1.927,0,0,1-.869-.189,1.771,1.771,0,0,1-.625-.507,1.912,1.912,0,0,1-.342-.735,2.08,2.08,0,0,1-.009-.874,2.542,2.542,0,0,1,.321-.867,3.054,3.054,0,0,1,.6-.738,2.877,2.877,0,0,1,.81-.51,2.437,2.437,0,0,1,.952-.189,1.966,1.966,0,0,1,.863.183,1.754,1.754,0,0,1,.975,1.237A2.212,2.212,0,0,1,429.065,314.564Zm-.636.006a1.8,1.8,0,0,0,.006-.6,1.477,1.477,0,0,0-.2-.558A1.2,1.2,0,0,0,427.8,313a1.373,1.373,0,0,0-.686-.159,1.675,1.675,0,0,0-.76.168,2.113,2.113,0,0,0-.583.423,2.231,2.231,0,0,0-.4.555,2.117,2.117,0,0,0-.2.564,1.715,1.715,0,0,0-.009.573,1.475,1.475,0,0,0,.2.555,1.228,1.228,0,0,0,.433.417,1.355,1.355,0,0,0,.7.165,1.7,1.7,0,0,0,.76-.165,2.124,2.124,0,0,0,.583-.417,2.209,2.209,0,0,0,.4-.549A2.048,2.048,0,0,0,428.429,314.57Z" transform="translate(-349.109 -312.248)" fill="#fff"></path><path id="Path_15" data-name="Path 15" d="M443.255,316.885l.683-3.751h-.018l-2.15,3.751h-.383l-.789-3.751h-.012l-.683,3.751h-.636l.807-4.441h1l.689,3.4,1.932-3.4h1l-.807,4.441Z" transform="translate(-357.573 -312.36)" fill="#fff"></path><path id="Path_16" data-name="Path 16" d="M456.094,316.885h-.636l.807-4.441h1.261a1.954,1.954,0,0,1,.663.1,1.026,1.026,0,0,1,.43.276.9.9,0,0,1,.206.426,1.444,1.444,0,0,1,0,.543,1.824,1.824,0,0,1-.2.546,1.453,1.453,0,0,1-.36.423,1.637,1.637,0,0,1-.53.276,2.277,2.277,0,0,1-.7.1h-.624Zm.424-2.347h.625a1.286,1.286,0,0,0,.46-.072,1.029,1.029,0,0,0,.312-.18.736.736,0,0,0,.186-.24,1.08,1.08,0,0,0,.085-.258.878.878,0,0,0,.008-.258.465.465,0,0,0-.1-.24.644.644,0,0,0-.244-.18,1.063,1.063,0,0,0-.43-.072H456.8Z" transform="translate(-366.848 -312.36)" fill="#fff"></path><path id="Path_17" data-name="Path 17" d="M467.723,316.885l-.247-1.308h-1.567l-.719,1.308h-.672l2.462-4.441h.572l.848,4.441Zm-.353-1.9-.247-1.7h-.012l-.866,1.7Z" transform="translate(-372.038 -312.36)" fill="#fff"></path><path id="Path_18" data-name="Path 18" d="M481.059,316.885l-1.532-3.433h-.012l-.625,3.433h-.636l.807-4.441h.695l1.509,3.379h.012l.613-3.379h.636l-.807,4.441Z" transform="translate(-379.907 -312.36)" fill="#fff"></path><path id="Path_19" data-name="Path 19" d="M493.463,316.885l.289-1.6-.837-2.839h.713l.583,2.083,1.331-2.083h.707l-1.862,2.839-.289,1.6Z" transform="translate(-388.306 -312.36)" fill="#fff"></path></g></g><path id="Exclusion_1" data-name="Exclusion 1" d="M68.036,35.546H0V0H68.036V35.545ZM37.461,32.279H46.82v2.253h2.317V18.725H63.583v-2.1H60.232V12.551L36.507,1.913,6.816,16.51H3.143v2.214H35.367V34.532h2.093V32.28Zm9.359-1.936H38.714l8.105-9.878v9.877Zm-9.359-1.876V18.725H45.45l-7.988,9.74ZM49.136,16.51H37.461V4.465l17.318,7.972H49.136V16.51Zm-13.769,0H11.685l23.683-11.7v11.7Z" transform="translate(0.255)" fill="#fff" stroke="rgba(0,0,0,0)" stroke-miterlimit="10" stroke-width="1"></path><path id="Path_21" data-name="Path 21" d="M375.121,257.845H278.613V222.3h96.508Zm-95.227-1.281h93.946V223.583H279.894Z" transform="translate(-210.905 -222.301)" fill="#fff"></path><g id="Group_6" data-name="Group 6" transform="translate(78.182 2.861)"><g id="Group_5" data-name="Group 5"><path id="Path_30" data-name="Path 30" d="M313.074,237.1a4.558,4.558,0,0,1-1.426,3.218,4.822,4.822,0,0,1-3.394,1.193,4.558,4.558,0,0,1-3.747-1.645,7.126,7.126,0,0,1-1.338-4.613,7.01,7.01,0,0,1,1.363-4.645A4.849,4.849,0,0,1,308.453,229a4.662,4.662,0,0,1,3.283,1.109,4.415,4.415,0,0,1,1.323,3.133h-2.2a2.377,2.377,0,0,0-.752-1.536,2.441,2.441,0,0,0-1.651-.528,2.608,2.608,0,0,0-2.24,1.04,6.332,6.332,0,0,0,0,6.032,2.517,2.517,0,0,0,2.17,1.056,2.433,2.433,0,0,0,1.666-.569,2.732,2.732,0,0,0,.84-1.633Z" transform="translate(-303.155 -228.998)" fill="#fff"></path><path id="Path_31" data-name="Path 31" d="M330.037,240.953a5.073,5.073,0,0,1,1.083-3.435,4.167,4.167,0,0,1,5.951,0,5.984,5.984,0,0,1,0,6.879,4.166,4.166,0,0,1-5.951,0A5.084,5.084,0,0,1,330.037,240.953Zm2.174,0a3.526,3.526,0,0,0,.49,2.016,1.715,1.715,0,0,0,2.779,0,4.381,4.381,0,0,0,0-4.02,1.724,1.724,0,0,0-2.782,0A3.489,3.489,0,0,0,332.211,240.953Z" transform="translate(-318.546 -233.163)" fill="#fff"></path><path id="Path_32" data-name="Path 32" d="M353.351,245.456V236.69h2.1v1.041a3,3,0,0,1,1.061-.956,2.908,2.908,0,0,1,1.363-.319,2.5,2.5,0,0,1,1.987.754,3.367,3.367,0,0,1,.659,2.27v5.976h-2.145v-5.3a2.364,2.364,0,0,0-.291-1.347,1.089,1.089,0,0,0-.947-.4,1.529,1.529,0,0,0-1.2.5,1.96,1.96,0,0,0-.442,1.351v5.2Z" transform="translate(-331.902 -233.27)" fill="#fff"></path><path id="Path_33" data-name="Path 33" d="M377.738,242.622q-.295.008-.7.029t-.519.02a2.219,2.219,0,0,1-1.685-.5,3.1,3.1,0,0,1-.453-1.988v-4.742h-1.061v-1.645h1.061v-2.4H376.5v2.4h1.238v1.645H376.5v4.855a.564.564,0,0,0,.141.456,1.023,1.023,0,0,0,.575.108h.523Z" transform="translate(-343.339 -230.372)" fill="#fff"></path><path id="Path_34" data-name="Path 34" d="M391.845,242.687h2.137a3.783,3.783,0,0,1-1.308,2.173,3.721,3.721,0,0,1-2.4.786,3.336,3.336,0,0,1-2.756-1.278A5.412,5.412,0,0,1,386.5,240.9a5.255,5.255,0,0,1,1-3.395,3.332,3.332,0,0,1,2.741-1.242,3.471,3.471,0,0,1,2.845,1.222,5.354,5.354,0,0,1,1,3.479q0,.251,0,.375c0,.084-.009.163-.018.238H388.72a2.661,2.661,0,0,0,.46,1.556,1.441,1.441,0,0,0,1.2.525,1.429,1.429,0,0,0,1.467-.976Zm-3.125-2.645h3.154a2.12,2.12,0,0,0-.431-1.351,1.442,1.442,0,0,0-1.153-.464,1.377,1.377,0,0,0-1.1.468A2.288,2.288,0,0,0,388.72,240.042Z" transform="translate(-350.893 -233.163)" fill="#fff"></path><path id="Path_35" data-name="Path 35" d="M412.768,242.042h2.115a4.007,4.007,0,0,1-1.113,2.637,3.435,3.435,0,0,1-2.521.968,3.306,3.306,0,0,1-2.738-1.246,5.4,5.4,0,0,1-.991-3.447,5.3,5.3,0,0,1,1.014-3.439,3.4,3.4,0,0,1,2.79-1.246,3.449,3.449,0,0,1,2.494.9,3.7,3.7,0,0,1,1.05,2.516h-2.13a1.816,1.816,0,0,0-.449-1.073,1.268,1.268,0,0,0-.951-.371,1.286,1.286,0,0,0-1.19.686,4.223,4.223,0,0,0-.395,2.057,3.811,3.811,0,0,0,.409,1.947,1.3,1.3,0,0,0,1.176.681,1.235,1.235,0,0,0,.958-.4A2.162,2.162,0,0,0,412.768,242.042Z" transform="translate(-362.934 -233.163)" fill="#fff"></path><path id="Path_36" data-name="Path 36" d="M427.866,240.953a5.073,5.073,0,0,1,1.083-3.435,4.167,4.167,0,0,1,5.951,0,5.984,5.984,0,0,1,0,6.879,4.166,4.166,0,0,1-5.951,0A5.084,5.084,0,0,1,427.866,240.953Zm2.174,0a3.526,3.526,0,0,0,.49,2.016,1.715,1.715,0,0,0,2.778,0,4.38,4.38,0,0,0,0-4.02,1.724,1.724,0,0,0-2.782,0A3.488,3.488,0,0,0,430.04,240.953Z" transform="translate(-374.589 -233.163)" fill="#fff"></path><path id="Path_37" data-name="Path 37" d="M451.18,245.456V236.69h2.1v1.041a2.994,2.994,0,0,1,1.061-.956,2.909,2.909,0,0,1,1.363-.319,2.5,2.5,0,0,1,1.987.754,3.366,3.366,0,0,1,.66,2.27v5.976h-2.145v-5.3a2.367,2.367,0,0,0-.29-1.347,1.09,1.09,0,0,0-.947-.4,1.529,1.529,0,0,0-1.2.5,1.959,1.959,0,0,0-.442,1.351v5.2Z" transform="translate(-387.945 -233.27)" fill="#fff"></path><path id="Path_38" data-name="Path 38" d="M311.418,272.052a3.994,3.994,0,0,1-1.375,1.315,3.729,3.729,0,0,1-1.809.419,4.533,4.533,0,0,1-3.689-1.729,8.026,8.026,0,0,1,0-9.085,4.624,4.624,0,0,1,3.751-1.7,5.051,5.051,0,0,1,3.331,1.069,4.39,4.39,0,0,1,1.533,2.939h-2.277a2.334,2.334,0,0,0-.844-1.411,2.676,2.676,0,0,0-1.662-.484,2.485,2.485,0,0,0-2.141,1.093,5.133,5.133,0,0,0-.778,3.02,5.007,5.007,0,0,0,.811,3.032,2.616,2.616,0,0,0,2.225,1.1,2.467,2.467,0,0,0,1.776-.686,3.119,3.119,0,0,0,.885-1.879h-2.462v-2.032h4.5v6.427h-1.5Z" transform="translate(-303.135 -247.485)" fill="#fff"></path><path id="Path_39" data-name="Path 39" d="M339.243,269.276v8.766h-2.1V277a3.075,3.075,0,0,1-1.065.956,2.9,2.9,0,0,1-1.367.319,2.482,2.482,0,0,1-1.979-.758,3.369,3.369,0,0,1-.66-2.266v-5.976h2.145v5.3a2.345,2.345,0,0,0,.288,1.335,1.09,1.09,0,0,0,.95.4,1.531,1.531,0,0,0,1.2-.5,1.948,1.948,0,0,0,.446-1.351v-5.185Z" transform="translate(-319.712 -252.072)" fill="#fff"></path><path id="Path_40" data-name="Path 40" d="M358.155,276.531a2.762,2.762,0,0,1-1.061,1.044,3.131,3.131,0,0,1-1.526.359,2.249,2.249,0,0,1-1.795-.726,3.053,3.053,0,0,1-.63-2.064,2.625,2.625,0,0,1,.63-1.9,3.685,3.685,0,0,1,2.082-.895c.221-.038.51-.081.869-.129q1.363-.193,1.364-.862a.9.9,0,0,0-.3-.762,1.7,1.7,0,0,0-1.01-.23,1.538,1.538,0,0,0-.995.282.98.98,0,0,0-.346.806v.129h-2v-.161a2.683,2.683,0,0,1,.87-2.117,3.5,3.5,0,0,1,2.4-.77,4.409,4.409,0,0,1,2.576.637,2.117,2.117,0,0,1,.9,1.838V276a2.436,2.436,0,0,0,.1.819.763.763,0,0,0,.346.407v.4h-2.233a2.172,2.172,0,0,1-.17-.5A3.17,3.17,0,0,1,358.155,276.531Zm-.037-3.225a5.413,5.413,0,0,1-1.2.427q-.682.161-.7.17a1.681,1.681,0,0,0-.792.443,1.1,1.1,0,0,0-.225.734.989.989,0,0,0,1.062,1.056,1.773,1.773,0,0,0,1.367-.536,2.069,2.069,0,0,0,.5-1.464Z" transform="translate(-331.783 -251.65)" fill="#fff"></path><path id="Path_41" data-name="Path 41" d="M374.049,281.558v-1.9q.1.016.214.024c.074.005.17.008.287.008a1.267,1.267,0,0,0,.951-.327,1.356,1.356,0,0,0,.317-.98.669.669,0,0,0-.014-.121c-.01-.048-.02-.089-.03-.121l-2.889-8.871h2.358l1.688,6.322,1.644-6.322h2.255l-3.294,10.338a3.174,3.174,0,0,1-.921,1.585,2.7,2.7,0,0,1-1.658.423q-.2,0-.428-.016T374.049,281.558Z" transform="translate(-343.092 -252.072)" fill="#fff"></path><path id="Path_42" data-name="Path 42" d="M398.76,276.531a2.759,2.759,0,0,1-1.061,1.044,3.129,3.129,0,0,1-1.525.359,2.248,2.248,0,0,1-1.795-.726,3.051,3.051,0,0,1-.63-2.064,2.623,2.623,0,0,1,.63-1.9,3.683,3.683,0,0,1,2.082-.895q.331-.056.869-.129,1.363-.193,1.363-.862a.9.9,0,0,0-.3-.762,1.7,1.7,0,0,0-1.01-.23,1.537,1.537,0,0,0-.995.282.981.981,0,0,0-.346.806v.129h-2v-.161a2.683,2.683,0,0,1,.87-2.117,3.5,3.5,0,0,1,2.4-.77,4.408,4.408,0,0,1,2.576.637,2.117,2.117,0,0,1,.9,1.838V276a2.438,2.438,0,0,0,.1.819.764.764,0,0,0,.347.407v.4H399a2.159,2.159,0,0,1-.169-.5A3.174,3.174,0,0,1,398.76,276.531Zm-.037-3.225a5.406,5.406,0,0,1-1.2.427q-.682.161-.7.17a1.685,1.685,0,0,0-.793.443,1.1,1.1,0,0,0-.225.734.989.989,0,0,0,1.061,1.056,1.772,1.772,0,0,0,1.367-.536,2.067,2.067,0,0,0,.5-1.464Z" transform="translate(-355.044 -251.65)" fill="#fff"></path><path id="Path_43" data-name="Path 43" d="M422.278,268.876v12.282h-2.093V276.5a3.189,3.189,0,0,1-1.02,1.085,2.479,2.479,0,0,1-1.323.351,2.821,2.821,0,0,1-2.4-1.282,5.65,5.65,0,0,1-.918-3.363,5.814,5.814,0,0,1,.918-3.407,2.781,2.781,0,0,1,2.369-1.31,2.682,2.682,0,0,1,1.389.359A2.852,2.852,0,0,1,420.215,270v-1.121Zm-5.631,4.322a3.715,3.715,0,0,0,.457,2.029,1.489,1.489,0,0,0,1.327.7,1.46,1.46,0,0,0,1.3-.694,3.756,3.756,0,0,0,.449-2.032,3.31,3.31,0,0,0-.472-1.915,1.527,1.527,0,0,0-1.327-.674,1.46,1.46,0,0,0-1.271.689A3.343,3.343,0,0,0,416.647,273.2Z" transform="translate(-366.946 -251.671)" fill="#fff"></path><path id="Path_44" data-name="Path 44" d="M445.113,269.276v8.766h-2.1V277a3.067,3.067,0,0,1-1.065.956,2.9,2.9,0,0,1-1.367.319,2.483,2.483,0,0,1-1.979-.758,3.37,3.37,0,0,1-.66-2.266v-5.976h2.145v5.3a2.346,2.346,0,0,0,.287,1.335,1.09,1.09,0,0,0,.95.4,1.531,1.531,0,0,0,1.2-.5,1.948,1.948,0,0,0,.446-1.351v-5.185Z" transform="translate(-380.361 -252.072)" fill="#fff"></path><path id="Path_45" data-name="Path 45" d="M460.1,264.125v-2.137h2.144v2.137Zm0,9.742V265.1h2.144v8.766Z" transform="translate(-393.055 -247.897)" fill="#fff"></path><path id="Path_46" data-name="Path 46" d="M470.663,273.867V261.988h2.145v11.879Z" transform="translate(-399.106 -247.897)" fill="#fff"></path></g></g></g></svg> 